<svg version="1.1" id="Layer_1" xmlns="http://www.w3.org/2000/svg" xmlns:xlink="http://www.w3.org/1999/xlink" x="0px" y="0px"
	 width="100%" viewBox="0 0 1123 713" enable-background="new 0 0 1123 713" xml:space="preserve">
<path fill="#0000FF" opacity="1.000000" stroke="none" 
	d="
M601.236938,194.830307 
	C601.236938,171.037292 601.236938,147.244278 601.236938,122.759361 
	C603.378174,122.759361 605.139648,122.759125 606.901123,122.759399 
	C676.879456,122.770187 746.857849,122.747490 816.835815,122.922661 
	C819.451660,122.929199 822.732239,124.181061 824.574097,125.997437 
	C847.232117,148.342224 869.726379,170.854279 892.089905,193.494034 
	C893.827332,195.252914 895.160339,198.288727 895.174683,200.739883 
	C895.373840,234.728180 895.383545,268.718536 895.161011,302.706543 
	C895.144165,305.273285 893.647583,308.483887 891.772461,310.285004 
	C870.024963,331.174347 848.126831,351.908295 826.105530,372.509186 
	C823.294800,375.138641 823.133667,377.160919 824.516663,380.564423 
	C847.903503,438.117310 871.146301,495.728729 894.416565,553.328918 
	C894.655457,553.920288 894.835876,554.535217 895.217712,555.645264 
	C893.535278,555.779419 892.151306,555.984985 890.767212,555.985962 
	C864.442017,556.005005 838.116394,555.928162 811.792175,556.088623 
	C808.401306,556.109314 806.972229,555.028564 805.671021,551.946777 
	C782.258972,496.498474 758.656555,441.130493 735.284973,385.665222 
	C733.711182,381.930298 731.871521,380.833588 727.969421,380.902924 
	C713.992065,381.151306 700.007629,381.000275 685.462280,381.000275 
	C685.462280,439.356995 685.462280,497.409454 685.462280,555.659973 
	C683.960083,555.808289 682.998169,555.985596 682.036072,555.986145 
	C656.044128,556.001587 630.052185,556.001953 604.060242,555.985046 
	C603.243286,555.984497 602.426514,555.775024 601.618835,554.961792 
	C601.696960,524.505310 601.772949,494.749969 601.802002,464.994629 
	C601.802917,464.054352 601.319702,463.113647 601.115845,461.695343 
	C601.177979,439.395203 601.206177,417.572845 601.190369,395.750519 
	C601.164185,359.603180 601.109680,323.455841 601.315308,286.948669 
	C601.653137,285.932007 601.820679,285.275177 601.820984,284.618317 
	C601.835388,255.628769 601.840637,226.639221 601.811157,197.649704 
	C601.810242,196.709702 601.436768,195.770096 601.236938,194.830307 
M685.363037,262.499939 
	C685.363037,274.095215 685.363037,285.690521 685.363037,297.311707 
	C686.705505,297.539185 687.339966,297.740234 687.974609,297.740814 
	C719.779114,297.769958 751.583862,297.825745 783.387695,297.685577 
	C785.262817,297.677338 787.526672,296.491180 788.935181,295.146729 
	C795.678528,288.710114 802.298096,282.132660 808.697937,275.356140 
	C810.106323,273.864929 811.118225,271.373566 811.158997,269.319885 
	C811.390320,257.668365 811.410950,246.006699 811.146240,234.356583 
	C811.096619,232.174530 809.929077,229.558868 808.418579,227.949448 
	C802.268433,221.396744 795.917725,215.013840 789.332336,208.900803 
	C787.622986,207.314087 784.799805,206.131836 782.480225,206.118179 
	C751.675842,205.936859 720.869995,205.993256 690.064514,206.009415 
	C688.629272,206.010162 687.194153,206.189651 685.363342,206.312439 
	C685.363342,224.927063 685.363342,243.213501 685.363037,262.499939 
z"/>
<path fill="#00B050" opacity="1.000000" stroke="none" 
	d="
M418.497925,427.736176 
	C418.420105,439.551758 418.288910,451.367279 418.275024,463.182922 
	C418.241974,491.318085 418.264343,519.453308 418.264343,547.588501 
	C418.264343,549.537354 418.264343,551.486145 418.264343,553.714233 
	C390.324615,553.714233 362.942139,553.714233 334.916687,553.714233 
	C334.916687,551.629150 334.916687,549.693726 334.916687,547.758362 
	C334.916687,509.800812 334.919128,471.843292 334.909180,433.885742 
	C334.908722,432.058380 334.799103,430.230988 334.676483,427.657104 
	C334.659882,391.943848 334.707123,356.977112 334.754333,322.010376 
	C334.798401,284.023956 334.843658,246.037552 334.872742,208.051117 
	C334.873108,207.582169 334.666290,207.113052 334.425323,206.086609 
	C299.930023,206.086609 265.377502,206.086609 230.517410,206.086609 
	C230.517410,178.271484 230.517410,151.028366 230.517410,123.395126 
	C327.783722,123.395126 424.985962,123.395126 522.573608,123.395126 
	C522.573608,150.668198 522.573608,178.035339 522.573608,205.978287 
	C487.931976,205.978287 453.381256,205.978287 418.354431,205.978287 
	C418.354431,244.824356 418.354431,283.098724 418.408447,322.307220 
	C418.474274,358.072937 418.486115,392.904572 418.497925,427.736176 
z"/>
<path fill="#FEFEFE" opacity="1.000000" stroke="none" 
	d="
M334.456543,321.889832 
	C334.707123,356.977112 334.659882,391.943848 334.502441,427.257141 
	C292.045807,457.636414 249.697784,487.666901 207.353745,517.703064 
	C190.932526,529.351135 174.563217,541.073425 158.050110,552.589661 
	C155.964096,554.044434 153.144241,554.447021 149.882401,555.617737 
	C149.882401,552.738647 149.882401,551.105957 149.882401,549.473267 
	C149.882401,522.143921 149.945129,494.814178 149.802063,467.485565 
	C149.784409,464.114990 150.785629,462.130707 153.604843,460.250732 
	C194.845688,432.749023 236.007797,405.129242 277.184326,377.531128 
	C278.545959,376.618500 279.861755,375.637451 281.448456,374.511169 
	C257.233948,358.332123 233.318573,342.345642 209.395386,326.370789 
	C190.724686,313.903351 172.009964,301.501007 153.428528,288.902039 
	C151.811768,287.805786 150.044571,285.464081 150.031754,283.688721 
	C149.822418,254.694427 149.883179,225.698196 149.895996,196.702393 
	C149.896286,196.065567 150.048141,195.428802 150.288300,193.544189 
	C153.324097,194.766907 156.221710,195.347534 158.425537,196.907990 
	C204.720413,229.688065 250.937668,262.577759 297.168304,295.448517 
	C309.501587,304.217682 321.828766,312.995453 334.456543,321.889832 
z"/>
<path fill="#FDFEFE" opacity="1.000000" stroke="none" 
	d="
M418.758911,427.909790 
	C418.486115,392.904572 418.474274,358.072937 418.484955,322.790527 
	C479.210602,279.960236 539.913757,237.580765 600.926880,195.015808 
	C601.436768,195.770096 601.810242,196.709702 601.811157,197.649704 
	C601.840637,226.639221 601.835388,255.628769 601.820984,284.618317 
	C601.820679,285.275177 601.653137,285.932007 600.993896,287.041504 
	C557.313965,316.456604 514.203613,345.419006 470.784790,374.588623 
	C490.777374,388.074768 510.315430,401.292114 529.892883,414.450836 
	C553.598511,430.384186 577.337585,446.267944 601.062134,462.173157 
	C601.319702,463.113647 601.802917,464.054352 601.802002,464.994629 
	C601.772949,494.749969 601.696960,524.505310 601.404053,554.603394 
	C598.606079,554.000671 595.670654,553.565491 593.511047,552.035217 
	C535.298767,510.786499 477.166046,469.425446 418.758911,427.909790 
z"/>
</svg>
